HIERARCHY
ROOT SpineBase
{
  OFFSET 0.000000 0.000000 0.000000
  CHANNELS 6 Xposition Yposition Zposition Zrotation Xrotation Yrotation
  JOINT SpineMid
  {
    OFFSET 0.000000 36.591485 0.000000
    CHANNELS 3 Zrotation Xrotation Yrotation
    JOINT SpineShoulder
    {
      OFFSET 0.153613 27.118521 -0.926487
      CHANNELS 3 Zrotation Xrotation Yrotation
      JOINT Neck
      {
        OFFSET 0.124118 8.953485 -0.713963
        CHANNELS 3 Zrotation Xrotation Yrotation
        JOINT Head
        {
          OFFSET 2.883774 11.148747 7.738752
          CHANNELS 3 Zrotation Xrotation Yrotation
          End Site
          {
            OFFSET 0 0 0
          }
        }
      }
      JOINT ShoulderLeft
      {
        OFFSET 2.491403 -5.677935 -13.976372
        CHANNELS 3 Zrotation Xrotation Yrotation
        JOINT ElbowLeft
        {
          OFFSET 11.960977 -23.516210 -6.643682
          CHANNELS 3 Zrotation Xrotation Yrotation
          JOINT WristLeft
          {
            OFFSET 10.521539 -23.685835 2.320800
            CHANNELS 3 Zrotation Xrotation Yrotation
            JOINT HandLeft
            {
              OFFSET 2.368724 -8.739536 2.212223
              CHANNELS 3 Zrotation Xrotation Yrotation
              JOINT HandTipLeft
              {
                OFFSET 4.066665 -6.772207 0.613804
                CHANNELS 3 Zrotation Xrotation Yrotation
                End Site
                {
                  OFFSET 0 0 0
                }
              }
              JOINT ThumbLeft
              {
                OFFSET 2.068216 2.763362 -3.119283
                CHANNELS 3 Zrotation Xrotation Yrotation
                End Site
                {
                  OFFSET 0 0 0
                }
              }
            }
          }
        }
      }
      JOINT ShoulderRight
      {
        OFFSET 17.377648 -9.046371 -15.594083
        CHANNELS 3 Zrotation Xrotation Yrotation
        JOINT ElbowRight
        {
          OFFSET 3.744569 -26.324331 -2.612738
          CHANNELS 3 Zrotation Xrotation Yrotation
          JOINT WristRight
          {
            OFFSET 8.983246 -24.281212 2.491427
            CHANNELS 3 Zrotation Xrotation Yrotation
            JOINT HandRight
            {
              OFFSET -0.570341 -4.657266 -0.334086
              CHANNELS 3 Zrotation Xrotation Yrotation
              JOINT HandTipRight
              {
                OFFSET 2.817286 -6.034768 1.560641
                CHANNELS 3 Zrotation Xrotation Yrotation
                End Site
                {
                  OFFSET 0 0 0
                }
              }
              JOINT ThumbRight
              {
                OFFSET -1.049602 -1.055511 -3.212526
                CHANNELS 3 Zrotation Xrotation Yrotation
                End Site
                {
                  OFFSET 0 0 0
                }
              }
            }
          }
        }
      }
    }
  }
  JOINT HipLeft
  {
    OFFSET -4.281912 1.290415 -6.940430
    CHANNELS 3 Zrotation Xrotation Yrotation
    JOINT KneeLeft
    {
      OFFSET 24.241927 -35.835914 -5.542336
      CHANNELS 3 Zrotation Xrotation Yrotation
      JOINT AnkleLeft
      {
        OFFSET 0.300662 -35.745960 -5.333897
        CHANNELS 3 Zrotation Xrotation Yrotation
        JOINT FootLeft
        {
          OFFSET 4.748507 -5.552524 1.115674
          CHANNELS 3 Zrotation Xrotation Yrotation
          End Site
          {
            OFFSET 0 0 0
          }
        }
      }
    }
  }
  JOINT HipRight
  {
    OFFSET 5.458434 1.512889 -1.207697
    CHANNELS 3 Zrotation Xrotation Yrotation
    JOINT KneeRight
    {
      OFFSET 2.406691 -40.867943 0.640543
      CHANNELS 3 Zrotation Xrotation Yrotation
      JOINT AnkleRight
      {
        OFFSET -0.389530 -34.323594 -0.561043
        CHANNELS 3 Zrotation Xrotation Yrotation
        JOINT FootRight
        {
          OFFSET 5.422397 -5.471529 -7.596090
          CHANNELS 3 Zrotation Xrotation Yrotation
          End Site
          {
            OFFSET 0 0 0
          }
        }
      }
    }
  }
}
MOTION
Frames: 5
Frame Time: 0.033333
-41.756646 78.786742 300.756479 1.062668 2.307815 -31.382281 -0.248705 0.372425 31.377226 0.204504 0.361553 0.037358 5.572764 7.091676 -7.376400 0.000000 0.000000 0.000000 9.042319 1.064297 -0.654509 -10.762197 -0.675981 1.905961 -0.631283 -2.072929 -1.456377 -2.237284 7.364524 5.204042 0.000000 0.000000 0.000000 0.000000 0.000000 0.000000 2.563224 -2.774332 -0.222617 -2.720086 1.729751 1.186356 20.468085 -17.872562 3.386687 -34.518750 31.337560 13.284918 0.000000 0.000000 0.000000 0.000000 0.000000 0.000000 -0.484150 -2.281319 31.832824 -0.664895 1.008552 -0.297099 -65.636751 36.895751 92.188493 0.000000 0.000000 0.000000 0.186966 1.666938 31.613273 -4.710975 -4.814770 -0.448957 -5.120625 11.454898 20.261238 0.000000 0.000000 0.000000
-41.684205 78.808176 300.754181 1.137555 2.538651 -32.590726 -0.268299 0.339623 32.581641 0.195206 0.348315 0.037492 5.688271 7.067250 -7.515637 0.000000 0.000000 0.000000 9.695733 0.827773 -0.808122 -10.555376 -0.062573 2.476628 -0.045055 -1.957957 -1.183893 -4.261559 5.952119 4.063386 0.000000 0.000000 0.000000 0.000000 0.000000 0.000000 3.084573 -3.440063 -0.285802 -3.510206 2.657142 1.468852 23.658593 -16.857129 3.241396 -39.395818 28.779955 13.210631 0.000000 0.000000 0.000000 0.000000 0.000000 0.000000 -0.313834 -2.573475 32.986379 -0.846954 1.073235 -0.218744 -66.011942 36.763413 92.824631 0.000000 0.000000 0.000000 -0.072179 2.017762 32.858095 -4.811121 -5.757047 -0.536883 -6.860930 14.336159 24.850711 0.000000 0.000000 0.000000
-41.617367 78.853093 300.790850 1.184514 2.737090 -34.205872 -0.264172 0.288410 34.193720 0.190653 0.309878 0.038424 5.829153 7.277203 -7.712497 0.000000 0.000000 0.000000 9.843168 0.405758 -0.951304 -9.820143 0.678197 3.004161 0.586703 -2.331914 -0.985586 -6.235413 5.205727 3.111827 0.000000 0.000000 0.000000 0.000000 0.000000 0.000000 3.343989 -3.593438 -0.294366 -3.781239 2.794439 1.542708 26.344440 -15.995402 3.173973 -44.366210 27.474107 13.662488 0.000000 0.000000 0.000000 0.000000 0.000000 0.000000 0.558980 -2.929416 34.191866 -1.428254 1.589862 0.245838 -63.671277 37.471832 90.273176 0.000000 0.000000 0.000000 -0.678671 1.352311 34.446111 -3.337563 -5.261230 -0.439904 -7.350586 16.223427 26.107536 0.000000 0.000000 0.000000
-41.607444 78.978371 300.846777 1.170451 2.937779 -35.668064 -0.221838 0.274615 35.655109 0.176058 0.275268 0.037626 5.974028 7.063992 -7.784449 0.000000 0.000000 0.000000 9.938661 -0.020323 -1.066275 -9.416116 1.313014 3.405832 2.089037 -3.270472 -0.675338 -8.163529 5.202410 2.357633 0.000000 0.000000 0.000000 0.000000 0.000000 0.000000 3.240028 -3.342044 -0.241817 -3.550719 2.071001 1.354340 29.816574 -14.445584 2.966343 -46.098266 25.456861 13.012786 0.000000 0.000000 0.000000 0.000000 0.000000 0.000000 0.762175 -3.069030 35.658468 -1.334888 1.556920 0.229987 -62.756592 38.223105 90.313355 0.000000 0.000000 0.000000 -1.107325 0.670969 35.872959 -1.886434 -4.603047 -0.344842 -5.883591 17.683389 24.116196 0.000000 0.000000 0.000000
-41.634381 79.177968 300.903959 1.108343 3.101417 -36.784151 -0.152842 0.241460 36.771734 0.136781 0.230945 0.033023 6.171522 6.909007 -7.842801 0.000000 0.000000 0.000000 9.775839 -0.524452 -1.175427 -8.789866 1.853284 3.688198 2.636581 -4.424348 -0.680421 -8.444872 5.655053 2.135277 0.000000 0.000000 0.000000 0.000000 0.000000 0.000000 2.789408 -3.193213 -0.190620 -2.430498 1.033030 1.024309 31.726919 -12.760695 2.552011 -46.345816 23.875108 12.344885 0.000000 0.000000 0.000000 0.000000 0.000000 0.000000 0.969777 -3.147458 36.780790 -1.157067 1.466825 0.199446 -62.371195 38.699978 90.422751 0.000000 0.000000 0.000000 -1.257256 0.334471 36.973724 -0.317512 -4.120479 -0.259052 -2.720349 14.853839 16.249991 0.000000 0.000000 0.000000
